<svg width="80.000000" height="72.000000" viewBox="0 0 80 72" fill="none" xmlns="http://www.w3.org/2000/svg" xmlns:xlink="http://www.w3.org/1999/xlink">
	<desc>
			Created with Pixso.
	</desc>
	<defs>
		<clipPath id="clip33_0">
			<rect id="Frame" width="80.000000" height="71.154945" fill="white" fill-opacity="0"/>
		</clipPath>
		<linearGradient x1="13.259752" y1="42.565632" x2="66.473015" y2="42.565632" id="paint_linear_33_1_0" gradientUnits="userSpaceOnUse">
			<stop stop-color="#B0F4FF"/>
			<stop offset="1.000000" stop-color="#69DCFC"/>
		</linearGradient>
		<linearGradient x1="0.000021" y1="42.574619" x2="13.259752" y2="42.574619" id="paint_linear_33_4_0" gradientUnits="userSpaceOnUse">
			<stop stop-color="#6CBCFC"/>
			<stop offset="1.000000" stop-color="#458DFC"/>
		</linearGradient>
		<linearGradient x1="20.996157" y1="7.008488" x2="58.094376" y2="7.008488" id="paint_linear_33_7_0" gradientUnits="userSpaceOnUse">
			<stop stop-color="#6CBCFC"/>
			<stop offset="1.000000" stop-color="#458DFC"/>
		</linearGradient>
		<linearGradient x1="66.468567" y1="42.569038" x2="80.000717" y2="42.569038" id="paint_linear_33_8_0" gradientUnits="userSpaceOnUse">
			<stop stop-color="#6CBCFC"/>
			<stop offset="1.000000" stop-color="#458DFC"/>
		</linearGradient>
		<linearGradient x1="27.366589" y1="42.578262" x2="52.629913" y2="42.578262" id="paint_linear_33_10_0" gradientUnits="userSpaceOnUse">
			<stop stop-color="#6CBCFC"/>
			<stop offset="1.000000" stop-color="#458DFC"/>
		</linearGradient>
	</defs>
	<rect id="Frame" width="80.000000" height="71.154945" fill="#FFFFFF" fill-opacity="0"/>
	<g clip-path="url(#clip33_0)">
		<path id="Vector" d="M13.25 14.01L66.47 14.01L66.47 71.12L13.25 71.12L13.25 14.01Z" fill="url(#paint_linear_33_1_0)" fill-opacity="1.000000" fill-rule="evenodd"/>
		<path id="Vector" d="M13.03 14.01C13.1 14.01 13.16 14.03 13.25 14.06C13.25 33.06 13.25 52.07 13.25 71.09C9.13 71.42 5.66 70.38 2.89 67.72C0.94 65.83 2.09e-5 63.61 2.09e-5 61.09C2.09e-5 52.19 2.09e-5 43.3 2.09e-5 34.4C2.09e-5 31.01 -0.01 27.61 -0.01 24.22C-0.01 20.12 2.2 17.13 6.26 15.12C8.35 14.09 10.68 13.93 13.03 14.01Z" fill="url(#paint_linear_33_4_0)" fill-opacity="1.000000" fill-rule="nonzero"/>
		<path id="Vector" d="M57.18 14C59.55 14 59.79 14 62.16 14C62.16 33.06 62.16 52.07 62.16 71.1C46 71.1 33.78 71.1 17.57 71.1C17.57 52.07 17.57 33.07 17.57 14.01C19.93 14.01 20.45 14.01 22.86 14.01C22.86 13.78 22.86 13.59 22.86 13.42C22.86 11.37 22.87 9.32 22.85 7.27C22.83 5.84 23.22 4.59 24.34 3.62C25.13 2.94 26.03 2.59 27.06 2.59C30.25 2.58 33.42 2.58 36.6 2.58C41.95 2.58 47.31 2.59 52.66 2.58C54.07 2.58 55.23 3.04 56.15 4.11C56.88 4.96 57.16 5.96 57.16 7.08C57.15 9.23 57.16 11.39 57.16 13.55C57.15 13.67 57.16 13.8 57.18 14ZM28.6 14C28.82 14 28.99 14 29.15 14C31.69 14 34.23 14 36.76 14C41.5 14 46.24 14 50.97 14.01C51.35 14.01 51.43 13.89 51.43 13.53C51.41 11.92 51.43 10.32 51.43 8.71C51.43 8.58 51.41 8.45 51.4 8.32C43.78 8.32 36.21 8.32 28.6 8.32C28.6 10.21 28.6 12.06 28.6 14Z" fill="#FFFFFF" fill-opacity="1.000000" fill-rule="nonzero"/>
		<mask id="mask33_12" mask-type="alpha" maskUnits="userSpaceOnUse" x="17.570801" y="2.587402" width="44.592270" height="68.521606">
			<path id="Vector" d="M57.18 14C59.55 14 59.79 14 62.16 14C62.16 33.06 62.16 52.07 62.16 71.1C46 71.1 33.78 71.1 17.57 71.1C17.57 52.07 17.57 33.07 17.57 14.01C19.93 14.01 20.45 14.01 22.86 14.01C22.86 13.78 22.86 13.59 22.86 13.42C22.86 11.37 22.87 9.32 22.85 7.27C22.83 5.84 23.22 4.59 24.34 3.62C25.13 2.94 26.03 2.59 27.06 2.59C30.25 2.58 33.42 2.58 36.6 2.58C41.95 2.58 47.31 2.59 52.66 2.58C54.07 2.58 55.23 3.04 56.15 4.11C56.88 4.96 57.16 5.96 57.16 7.08C57.15 9.23 57.16 11.39 57.16 13.55C57.15 13.67 57.16 13.8 57.18 14ZM28.6 14C28.82 14 28.99 14 29.15 14C31.69 14 34.23 14 36.76 14C41.5 14 46.24 14 50.97 14.01C51.35 14.01 51.43 13.89 51.43 13.53C51.41 11.92 51.43 10.32 51.43 8.71C51.43 8.58 51.41 8.45 51.4 8.32C43.78 8.32 36.21 8.32 28.6 8.32C28.6 10.21 28.6 12.06 28.6 14Z" fill="#F7F9FC" fill-opacity="1.000000" fill-rule="nonzero"/>
		</mask>
		<g mask="url(#mask33_12)">
			<path id="Vector" d="M21 0L58.09 0L58.09 14.01L21 14.01L21 0Z" fill="url(#paint_linear_33_7_0)" fill-opacity="1.000000" fill-rule="evenodd"/>
		</g>
		<path id="Vector" d="M80 24.07C80 20.29 77.93 17.47 74.26 15.43C72 14.17 69.44 13.93 66.82 13.99C66.42 14 66.47 14.21 66.47 14.43C66.47 21.03 66.47 27.63 66.47 34.24C66.47 45.84 66.47 57.44 66.46 69.05C66.46 69.72 66.46 70.39 66.46 71.11C68.11 71.17 69.68 71.18 71.22 70.81C76.43 69.58 79.99 65.7 79.99 61.12C80 48.78 80 36.42 80 24.07Z" fill="url(#paint_linear_33_8_0)" fill-opacity="1.000000" fill-rule="nonzero"/>
		<path id="Vector" d="M44.21 46.78C44.21 47.96 44.21 49.08 44.21 50.21C44.21 51.49 44.21 52.76 44.21 54.03C44.21 54.79 43.83 55.19 43.07 55.19C41 55.2 38.93 55.2 36.85 55.19C36.16 55.19 35.78 54.76 35.78 54.04C35.78 51.76 35.78 49.49 35.78 47.21C35.78 47.08 35.78 46.95 35.78 46.78C35.6 46.78 35.48 46.78 35.34 46.78C33.1 46.78 30.85 46.78 28.61 46.78C27.72 46.78 27.36 46.42 27.36 45.53C27.36 43.56 27.36 41.59 27.36 39.61C27.36 38.72 27.71 38.36 28.6 38.36C30.83 38.36 33.06 38.36 35.29 38.36C35.44 38.36 35.58 38.36 35.77 38.36C35.77 38.21 35.77 38.09 35.77 37.97C35.77 35.7 35.77 33.42 35.77 31.15C35.77 30.3 36.15 29.93 36.99 29.93C38.96 29.93 40.94 29.93 42.91 29.93C43.83 29.93 44.19 30.28 44.19 31.23C44.2 33.49 44.19 35.73 44.19 37.99C44.19 38.1 44.19 38.21 44.19 38.37C44.34 38.37 44.47 38.37 44.59 38.37C46.86 38.37 49.14 38.37 51.41 38.38C52.25 38.38 52.61 38.74 52.61 39.58C52.61 41.56 52.61 43.54 52.61 45.52C52.61 46.43 52.26 46.78 51.37 46.78C49.1 46.78 46.84 46.78 44.58 46.79C44.49 46.78 44.38 46.78 44.21 46.78Z" fill="url(#paint_linear_33_10_0)" fill-opacity="1.000000" fill-rule="nonzero"/>
	</g>
</svg>
