<svg width="62.000000" height="86.000000" viewBox="0 0 62 86" fill="none" xmlns="http://www.w3.org/2000/svg" xmlns:xlink="http://www.w3.org/1999/xlink">
	<desc>
			Created with Pixso.
	</desc>
	<defs>
		<linearGradient x1="-0.000008" y1="11.333279" x2="57.138893" y2="90.194397" id="paint_linear_27_38_0" gradientUnits="userSpaceOnUse">
			<stop stop-color="#6CBCFC"/>
			<stop offset="1.000000" stop-color="#458DFC"/>
		</linearGradient>
		<linearGradient x1="-629.929993" y1="-39.930725" x2="-27.604015" y2="2.022095" id="paint_linear_27_40_0" gradientUnits="userSpaceOnUse">
			<stop stop-color="#B0F4FF"/>
			<stop offset="0.052549" stop-color="#A9F2FF"/>
			<stop offset="0.287900" stop-color="#8DE8FE"/>
			<stop offset="0.524700" stop-color="#79E1FD"/>
			<stop offset="0.761800" stop-color="#6DDDFC"/>
			<stop offset="1.000000" stop-color="#69DCFC"/>
		</linearGradient>
		<linearGradient x1="6.139957" y1="6.113132" x2="56.125771" y2="6.113132" id="paint_linear_27_41_0" gradientUnits="userSpaceOnUse">
			<stop stop-color="#B0F4FF"/>
			<stop offset="0.052549" stop-color="#A9F2FF"/>
			<stop offset="0.287900" stop-color="#8DE8FE"/>
			<stop offset="0.524700" stop-color="#79E1FD"/>
			<stop offset="0.761800" stop-color="#6DDDFC"/>
			<stop offset="1.000000" stop-color="#69DCFC"/>
		</linearGradient>
		<linearGradient x1="21.977917" y1="43.095329" x2="12.597474" y2="53.912434" id="paint_linear_27_44_0" gradientUnits="userSpaceOnUse">
			<stop stop-color="#6CBCFC"/>
			<stop offset="1.000000" stop-color="#458DFC"/>
		</linearGradient>
		<linearGradient x1="52.384743" y1="45.671005" x2="28.886654" y2="45.671005" id="paint_linear_27_45_0" gradientUnits="userSpaceOnUse">
			<stop stop-color="#6CBCFC"/>
			<stop offset="1.000000" stop-color="#458DFC"/>
		</linearGradient>
		<linearGradient x1="30.551876" y1="51.532131" x2="52.179001" y2="51.532131" id="paint_linear_27_46_0" gradientUnits="userSpaceOnUse">
			<stop stop-color="#6CBCFC"/>
			<stop offset="1.000000" stop-color="#458DFC"/>
		</linearGradient>
	</defs>
	<path id="Vector" d="M61.85 26.48L61.66 66.28L61.63 73.97C61.6 80.09 55.78 85.03 48.63 84.99L12.88 84.84C5.74 84.79 -0.04 79.8 9.53e-6 73.67L0.22 26.17C0.23 21.22 4.07 17.04 9.31 15.65L9.32 13.09L9.32 11.78L52.88 11.99L52.86 15.85C58.08 17.31 61.87 21.51 61.85 26.48Z" fill="url(#paint_linear_27_38_0)" fill-opacity="1.000000" fill-rule="nonzero"/>
	<path id="Vector" d="M56.12 1.77L56.12 2.12L56.09 6.27L56.05 10.34L56.05 10.84C56.05 11.61 55.42 12.23 54.65 12.23L54.31 12.23L52.21 12.21L49.89 12.2L47.78 12.18L45.47 12.17L43.33 12.13L41.01 12.12L38.9 12.1L36.57 12.09L34.45 12.07L32.13 12.05L30.02 12.02L27.71 12.01L25.6 11.99L23.27 11.97L21.14 11.96L18.84 11.94L16.73 11.93L14.42 11.91L12.29 11.89L9.98 11.88L7.85 11.86L7.52 11.86C6.75 11.86 6.13 11.22 6.13 10.46L6.13 10.44L6.13 10.09L6.19 1.88L6.19 1.38C6.19 0.62 6.83 0 7.61 0L7.95 0L12.39 0.03L16.83 0.06L18.95 0.07L21.27 0.09L23.38 0.11L27.8 0.15L30.12 0.17L32.23 0.19L34.54 0.2L36.65 0.22L38.97 0.23L41.07 0.25L43.39 0.27L45.5 0.28L47.85 0.31L49.95 0.33L52.27 0.35L54.39 0.36L54.73 0.36C55.51 0.38 56.12 1 56.12 1.77Z" fill="url(#paint_linear_27_40_0)" fill-opacity="1.000000" fill-rule="nonzero"/>
	<path id="Vector" d="M56.12 2.14L56.09 6.27L56.05 10.34L54.15 10.33L51.63 10.31L49.31 10.3L46.78 10.3L44.46 10.28L41.94 10.26L39.62 10.25L37.08 10.25L34.76 10.23L32.23 10.22L29.93 10.2L27.39 10.2L25.07 10.18L22.53 10.17L20.21 10.15L17.69 10.15L15.38 10.14L12.84 10.12L10.52 10.1L8 10.1L6.13 10.09L6.19 1.88L10.63 1.9L15.47 1.93L17.79 1.94L20.33 1.96L22.64 1.96L27.48 1.99L30.02 2.01L32.34 2.01L34.88 2.02L37.18 2.04L39.72 2.06L42.03 2.06L44.57 2.07L46.87 2.09L49.41 2.1L51.73 2.1L54.27 2.12L56.12 2.14Z" fill="url(#paint_linear_27_41_0)" fill-opacity="1.000000" fill-rule="nonzero"/>
	<path id="Vector" d="M0.17 34.59L61.81 34.88L61.68 62.21L0.04 61.91L0.17 34.59Z" fill="#F7F9FC" fill-opacity="1.000000" fill-rule="evenodd"/>
	<path id="Vector" d="M0.18 34.59L61.82 34.88L61.79 39.8L0.16 39.51L0.18 34.59Z" fill="#FBFCF7" fill-opacity="1.000000" fill-rule="evenodd"/>
	<path id="Vector" d="M24.21 45.58L20.23 45.56L20.25 41.57L14.77 41.55L14.75 45.53L10.78 45.51L10.74 50.97L14.72 50.99L14.7 54.98L20.18 55L20.2 51.02L24.18 51.04L24.21 45.58Z" fill="url(#paint_linear_27_44_0)" fill-opacity="1.000000" fill-rule="nonzero"/>
	<path id="Vector" d="M51.23 46.9L31.52 46.81C31 46.81 30.56 46.37 30.56 45.85L30.56 45.4C30.56 44.87 31 44.44 31.52 44.44L51.23 44.54C51.76 44.54 52.19 44.97 52.19 45.5L52.19 45.94C52.19 46.47 51.76 46.9 51.23 46.9Z" fill="url(#paint_linear_27_45_0)" fill-opacity="1.000000" fill-rule="nonzero"/>
	<g opacity="0.500000">
		<path id="Vector" d="M51.22 52.76L31.51 52.67C30.98 52.67 30.55 52.24 30.55 51.71L30.55 51.26C30.55 50.73 30.98 50.3 31.51 50.3L51.22 50.4C51.74 50.4 52.17 50.83 52.17 51.36L52.17 51.8C52.17 52.33 51.74 52.76 51.22 52.76Z" fill="url(#paint_linear_27_46_0)" fill-opacity="1.000000" fill-rule="nonzero"/>
	</g>
	<g opacity="0.080000">
		<path id="Vector" d="M6.13 1.77L6.13 2.12L6.16 6.27L6.19 10.33L6.19 10.82C6.19 11.59 6.83 12.21 7.6 12.21L7.93 12.21L10.06 12.2L12.37 12.18L14.48 12.17L16.8 12.15L18.91 12.13L21.22 12.12L23.33 12.1L25.65 12.09L27.77 12.07L30.09 12.05L32.19 12.04L34.51 12.02L36.62 12.01L38.93 11.99L41.06 11.97L43.37 11.96L45.48 11.94L47.8 11.93L49.91 11.91L52.22 11.89L54.35 11.88L54.68 11.88C55.45 11.88 56.07 11.24 56.07 10.47L56.07 10.46L56.07 10.1C31.36 11.18 7.52 0.36 7.52 0.36C6.75 0.38 6.13 1 6.13 1.77Z" fill="#1A6FB5" fill-opacity="1.000000" fill-rule="nonzero"/>
	</g>
</svg>
