<svg width="70.000000" height="96.000000" viewBox="0 0 70 96" fill="none" xmlns="http://www.w3.org/2000/svg" xmlns:xlink="http://www.w3.org/1999/xlink">
	<desc>
			Created with Pixso.
	</desc>
	<defs>
		<linearGradient x1="95.000031" y1="125.999962" x2="-6.000038" y2="-5.499977" id="paint_linear_42_3_0" gradientUnits="userSpaceOnUse">
			<stop offset="0.306100" stop-color="#5BA7FC"/>
			<stop offset="1.000000" stop-color="#69B8FC"/>
		</linearGradient>
		<linearGradient x1="8.624046" y1="7.045658" x2="55.237904" y2="79.907410" id="paint_linear_42_17_0" gradientUnits="userSpaceOnUse">
			<stop offset="0.306100" stop-color="#FFFFFF"/>
			<stop offset="1.000000" stop-color="#FFFFFF"/>
		</linearGradient>
		<linearGradient x1="10.000031" y1="9.500028" x2="25.000029" y2="34.000027" id="paint_linear_42_7_0" gradientUnits="userSpaceOnUse">
			<stop stop-color="#B0F4FF"/>
			<stop offset="0.368525" stop-color="#80E4FD"/>
			<stop offset="1.000000" stop-color="#6CDDFC"/>
		</linearGradient>
		<linearGradient x1="10.290506" y1="38.207184" x2="59.135452" y2="38.207184" id="paint_linear_42_8_0" gradientUnits="userSpaceOnUse">
			<stop stop-color="#6CBCFC"/>
			<stop offset="1.000000" stop-color="#458DFC"/>
		</linearGradient>
		<linearGradient x1="34.324905" y1="15.584404" x2="59.135559" y2="15.584404" id="paint_linear_42_9_0" gradientUnits="userSpaceOnUse">
			<stop stop-color="#6CBCFC"/>
			<stop offset="1.000000" stop-color="#458DFC"/>
		</linearGradient>
		<linearGradient x1="34.324905" y1="23.261559" x2="52.125652" y2="23.261559" id="paint_linear_42_10_0" gradientUnits="userSpaceOnUse">
			<stop stop-color="#6CBCFC"/>
			<stop offset="1.000000" stop-color="#458DFC"/>
		</linearGradient>
		<linearGradient x1="10.290510" y1="46.831692" x2="59.135445" y2="46.831692" id="paint_linear_42_11_0" gradientUnits="userSpaceOnUse">
			<stop stop-color="#6CBCFC"/>
			<stop offset="1.000000" stop-color="#458DFC"/>
		</linearGradient>
		<linearGradient x1="10.290506" y1="55.456215" x2="59.135452" y2="55.456215" id="paint_linear_42_12_0" gradientUnits="userSpaceOnUse">
			<stop stop-color="#6CBCFC"/>
			<stop offset="1.000000" stop-color="#458DFC"/>
		</linearGradient>
		<linearGradient x1="10.290506" y1="64.080673" x2="59.135452" y2="64.080673" id="paint_linear_42_13_0" gradientUnits="userSpaceOnUse">
			<stop stop-color="#6CBCFC"/>
			<stop offset="1.000000" stop-color="#458DFC"/>
		</linearGradient>
		<linearGradient x1="10.290510" y1="72.705200" x2="59.135445" y2="72.705200" id="paint_linear_42_14_0" gradientUnits="userSpaceOnUse">
			<stop stop-color="#6CBCFC"/>
			<stop offset="1.000000" stop-color="#458DFC"/>
		</linearGradient>
		<linearGradient x1="10.290506" y1="81.329681" x2="59.135452" y2="81.329681" id="paint_linear_42_15_0" gradientUnits="userSpaceOnUse">
			<stop stop-color="#6CBCFC"/>
			<stop offset="1.000000" stop-color="#458DFC"/>
		</linearGradient>
	</defs>
	<path id="Vector" d="M69.42 4.31L69.42 90.7C69.42 93.08 67.49 95.01 65.11 95.01L4.31 95.01C1.92 95 0 93.07 0 90.7L0 4.31C0 1.92 1.92 0 4.31 0L65.12 0C67.49 0 69.42 1.92 69.42 4.31Z" fill="url(#paint_linear_42_3_0)" fill-opacity="1.000000" fill-rule="nonzero"/>
	<path id="Vector" d="M65 7.94L65 87.05C65 89.23 63.3 91 61.21 91L7.78 91C5.69 90.98 4 89.22 4 87.05L4 7.94C4 5.76 5.69 4 7.78 4L61.22 4C63.3 4 65 5.76 65 7.94Z" fill="url(#paint_linear_42_17_0)" fill-opacity="1.000000" fill-rule="nonzero"/>
	<path id="Vector" d="M26.87 18.25L26.87 22.18C26.87 22.46 26.65 22.68 26.36 22.68L21.55 22.68C21.26 22.68 21.04 22.9 21.04 23.19L21.04 28C21.04 28.29 20.82 28.51 20.54 28.51L16.6 28.51C16.32 28.51 16.1 28.29 16.1 28L16.1 23.19C16.1 22.9 15.88 22.68 15.59 22.68L10.79 22.68C10.51 22.68 10.29 22.46 10.29 22.18L10.29 18.25C10.29 17.96 10.51 17.74 10.79 17.74L15.61 17.74C15.89 17.74 16.12 17.52 16.12 17.24L16.12 12.42C16.12 12.14 16.34 11.92 16.62 11.92L20.55 11.92C20.84 11.92 21.06 12.14 21.06 12.42L21.06 17.24C21.06 17.52 21.28 17.74 21.56 17.74L26.36 17.74C26.65 17.74 26.87 17.96 26.87 18.25Z" fill="url(#paint_linear_42_7_0)" fill-opacity="1.000000" fill-rule="nonzero"/>
	<g opacity="0.500000">
		<path id="Vector" d="M58.57 39.67L10.84 39.67C10.53 39.67 10.27 39.42 10.27 39.1L10.27 37.29C10.27 36.97 10.53 36.72 10.84 36.72L58.57 36.72C58.89 36.72 59.14 36.97 59.14 37.29L59.14 39.1C59.12 39.42 58.89 39.67 58.57 39.67Z" fill="url(#paint_linear_42_8_0)" fill-opacity="1.000000" fill-rule="nonzero"/>
	</g>
	<path id="Vector" d="M58.57 17.05L34.89 17.05C34.57 17.05 34.32 16.79 34.32 16.48L34.32 14.68C34.32 14.36 34.57 14.11 34.89 14.11L58.57 14.11C58.89 14.11 59.14 14.36 59.14 14.68L59.14 16.49C59.12 16.79 58.89 17.05 58.57 17.05Z" fill="url(#paint_linear_42_9_0)" fill-opacity="1.000000" fill-rule="nonzero"/>
	<g opacity="0.500000">
		<path id="Vector" d="M51.56 24.72L34.89 24.72C34.57 24.72 34.32 24.47 34.32 24.15L34.32 22.34C34.32 22.02 34.57 21.77 34.89 21.77L51.56 21.77C51.88 21.77 52.13 22.02 52.13 22.34L52.13 24.15C52.11 24.47 51.88 24.72 51.56 24.72Z" fill="url(#paint_linear_42_10_0)" fill-opacity="1.000000" fill-rule="nonzero"/>
	</g>
	<g opacity="0.500000">
		<path id="Vector" d="M58.57 48.29L10.84 48.29C10.53 48.29 10.27 48.04 10.27 47.72L10.27 45.91C10.27 45.59 10.53 45.34 10.84 45.34L58.57 45.34C58.89 45.34 59.14 45.59 59.14 45.91L59.14 47.72C59.12 48.04 58.89 48.29 58.57 48.29Z" fill="url(#paint_linear_42_11_0)" fill-opacity="1.000000" fill-rule="nonzero"/>
	</g>
	<g opacity="0.500000">
		<path id="Vector" d="M58.57 56.91L10.84 56.91C10.53 56.91 10.27 56.66 10.27 56.34L10.27 54.53C10.27 54.21 10.53 53.96 10.84 53.96L58.57 53.96C58.89 53.96 59.14 54.21 59.14 54.53L59.14 56.36C59.12 56.66 58.89 56.91 58.57 56.91Z" fill="url(#paint_linear_42_12_0)" fill-opacity="1.000000" fill-rule="nonzero"/>
	</g>
	<g opacity="0.500000">
		<path id="Vector" d="M58.57 65.55L10.84 65.55C10.53 65.55 10.27 65.3 10.27 64.98L10.27 63.17C10.27 62.85 10.53 62.6 10.84 62.6L58.57 62.6C58.89 62.6 59.14 62.85 59.14 63.17L59.14 64.98C59.12 65.3 58.89 65.55 58.57 65.55Z" fill="url(#paint_linear_42_13_0)" fill-opacity="1.000000" fill-rule="nonzero"/>
	</g>
	<g opacity="0.500000">
		<path id="Vector" d="M58.57 74.17L10.84 74.17C10.53 74.17 10.27 73.92 10.27 73.6L10.27 71.79C10.27 71.47 10.53 71.22 10.84 71.22L58.57 71.22C58.89 71.22 59.14 71.47 59.14 71.79L59.14 73.6C59.12 73.92 58.89 74.17 58.57 74.17Z" fill="url(#paint_linear_42_14_0)" fill-opacity="1.000000" fill-rule="nonzero"/>
	</g>
	<g opacity="0.500000">
		<path id="Vector" d="M58.57 82.79L10.84 82.79C10.53 82.79 10.27 82.54 10.27 82.22L10.27 80.41C10.27 80.09 10.53 79.84 10.84 79.84L58.57 79.84C58.89 79.84 59.14 80.09 59.14 80.41L59.14 82.22C59.12 82.54 58.89 82.79 58.57 82.79Z" fill="url(#paint_linear_42_15_0)" fill-opacity="1.000000" fill-rule="nonzero"/>
	</g>
	<g opacity="0.100000">
		<path id="Vector" d="M69.42 4.31L69.42 90.7C69.42 93.08 67.49 95.01 65.11 95.01L4.31 95.01C1.92 95 0 93.07 0 90.7L0 89.2C37.08 73.89 54.36 15.15 58.25 0L65.11 0C67.49 0 69.42 1.92 69.42 4.31Z" fill="#1A6FB5" fill-opacity="0.400000" fill-rule="nonzero"/>
	</g>
</svg>
