<svg width="160.000000" height="41.000000" viewBox="0 0 160 41" fill="none" xmlns="http://www.w3.org/2000/svg" xmlns:xlink="http://www.w3.org/1999/xlink">
	<desc>
			Created with Pixso.
	</desc>
	<defs/>
	<path id="Trafalgar" d="M96.93 15.91L99.53 15.91L99.53 18.63L96.93 18.63L96.93 29L93.3 29L93.3 18.63L91.45 18.63L91.45 15.91L93.3 15.91L93.3 14.96C93.3 12.11 95.13 10.72 97.6 10.72C98.71 10.72 99.71 10.94 100.16 11.08L99.52 13.81C99.23 13.71 98.79 13.62 98.35 13.62C97.29 13.62 96.93 14.14 96.93 15.03L96.93 15.91ZM59.19 14.58L53.84 14.58L53.84 11.54L68.18 11.54L68.18 14.58L62.84 14.58L62.84 29L59.19 29L59.19 14.58ZM115.19 11.54L118.83 11.54L118.83 29L115.19 29L115.19 11.54ZM72.75 29L69.12 29L69.12 15.91L72.64 15.91L72.64 18.19L72.77 18.19C73.26 16.57 74.46 15.72 75.92 15.72C76.29 15.72 76.74 15.77 77.06 15.85L77.06 19.06C76.72 18.96 76.03 18.87 75.53 18.87C73.93 18.87 72.75 19.98 72.75 21.59L72.75 29ZM154.48 29L150.84 29L150.84 15.91L154.36 15.91L154.36 18.19L154.5 18.19C154.98 16.57 156.18 15.72 157.65 15.72C158.02 15.72 158.47 15.77 158.79 15.85L158.79 19.06C158.45 18.96 157.76 18.87 157.25 18.87C155.65 18.87 154.48 19.98 154.48 21.59L154.48 29ZM86.12 27.18C85.48 28.4 84.23 29.24 82.29 29.24C79.8 29.24 77.95 27.93 77.95 25.34C77.95 22.41 80.28 21.55 82.87 21.31C85.14 21.08 86.04 20.97 86.04 20.13L86.04 20.08C86.04 19 85.33 18.38 84.09 18.38C82.79 18.38 82.01 19.02 81.77 19.9L78.41 19.62C78.91 17.24 80.98 15.74 84.11 15.74C87.03 15.74 89.67 17.05 89.67 20.16L89.67 29L86.23 29L86.23 27.18L86.12 27.18ZM108.83 27.18C108.19 28.4 106.94 29.24 105 29.24C102.5 29.24 100.66 27.93 100.66 25.34C100.66 22.41 102.98 21.55 105.57 21.31C107.85 21.08 108.74 20.97 108.74 20.13L108.74 20.08C108.74 19 108.03 18.38 106.8 18.38C105.5 18.38 104.72 19.02 104.47 19.9L101.11 19.62C101.62 17.24 103.68 15.74 106.82 15.74C109.73 15.74 112.38 17.05 112.38 20.16L112.38 29L108.93 29L108.93 27.18L108.83 27.18ZM134.02 29.12C134.02 32.47 131.36 34.17 127.62 34.17C124.09 34.17 122.07 32.59 121.64 30.53L125 30.08C125.3 30.87 126.1 31.57 127.7 31.57C129.28 31.57 130.43 30.87 130.43 29.07L130.43 26.67L130.28 26.67C129.8 27.76 128.64 28.81 126.55 28.81C123.6 28.81 121.23 26.78 121.23 22.43C121.23 17.97 123.67 15.74 126.54 15.74C128.73 15.74 129.8 17.04 130.28 18.1L130.42 18.1L130.42 15.91L134.02 15.91L134.02 29.12ZM144.48 27.18C143.84 28.4 142.59 29.24 140.65 29.24C138.15 29.24 136.31 27.93 136.31 25.34C136.31 22.41 138.63 21.55 141.22 21.31C143.5 21.08 144.39 20.97 144.39 20.13L144.39 20.08C144.39 19 143.68 18.38 142.45 18.38C141.15 18.38 140.37 19.02 140.12 19.9L136.76 19.62C137.27 17.24 139.33 15.74 142.47 15.74C145.38 15.74 148.03 17.05 148.03 20.16L148.03 29L144.58 29L144.58 27.18L144.48 27.18ZM124.94 22.41C124.94 24.66 125.92 26.08 127.7 26.08C129.44 26.08 130.45 24.72 130.45 22.41C130.45 20.11 129.46 18.62 127.7 18.62C125.9 18.62 124.94 20.18 124.94 22.41ZM81.42 25.22C81.42 26.22 82.22 26.74 83.34 26.74C84.93 26.74 86.06 25.69 86.06 24.31L86.06 22.92C85.63 23.22 84.33 23.41 83.54 23.52C82.26 23.69 81.42 24.2 81.42 25.22ZM104.13 25.22C104.13 26.22 104.92 26.74 106.04 26.74C107.64 26.74 108.77 25.69 108.77 24.31L108.77 22.92C108.33 23.22 107.04 23.41 106.25 23.52C104.97 23.69 104.13 24.2 104.13 25.22ZM139.78 25.22C139.78 26.22 140.57 26.74 141.69 26.74C143.29 26.74 144.42 25.69 144.42 24.31L144.42 22.92C143.98 23.22 142.69 23.41 141.9 23.52C140.62 23.69 139.78 24.2 139.78 25.22Z" fill="#233348" fill-opacity="1.000000" fill-rule="evenodd"/>
	<circle id="Ellipse 7" cx="20.500000" cy="20.500000" r="20.500000" fill="#458FF6" fill-opacity="1.000000"/>
	<path id="T" d="M19.7 14.38L13.92 14.38L13.92 11.09L29.45 11.09L29.45 14.38L23.66 14.38L23.66 30L19.7 30L19.7 14.38Z" fill="#FFFFFF" fill-opacity="1.000000" fill-rule="evenodd"/>
</svg>
