<svg width="92.000000" height="90.000000" viewBox="0 0 92 90" fill="none" xmlns="http://www.w3.org/2000/svg" xmlns:xlink="http://www.w3.org/1999/xlink">
	<desc>
			Created with Pixso.
	</desc>
	<defs>
		<clipPath id="clip23_156">
			<rect id="Frame" width="91.978027" height="90.000000" fill="white" fill-opacity="0"/>
		</clipPath>
		<linearGradient x1="5.674721" y1="84.326492" x2="53.598022" y2="40.430531" id="paint_linear_23_158_0" gradientUnits="userSpaceOnUse">
			<stop stop-color="#67C3F3"/>
			<stop offset="1.000000" stop-color="#5A98F2"/>
		</linearGradient>
		<linearGradient x1="50.017342" y1="2.113359" x2="72.497704" y2="53.032661" id="paint_linear_23_160_0" gradientUnits="userSpaceOnUse">
			<stop stop-color="#67C3F3"/>
			<stop offset="1.000000" stop-color="#5A98F2"/>
		</linearGradient>
		<linearGradient x1="55.268642" y1="28.394667" x2="72.868843" y2="37.043755" id="paint_linear_23_163_0" gradientUnits="userSpaceOnUse">
			<stop stop-color="#B0F4FF"/>
			<stop offset="0.071077" stop-color="#A6F1FF"/>
			<stop offset="0.293700" stop-color="#8BE8FD"/>
			<stop offset="0.520900" stop-color="#78E1FD"/>
			<stop offset="0.753600" stop-color="#6DDDFC"/>
			<stop offset="1.000000" stop-color="#69DCFC"/>
		</linearGradient>
	</defs>
	<rect id="Frame" width="91.978027" height="90.000000" fill="#FFFFFF" fill-opacity="0"/>
	<g clip-path="url(#clip23_156)">
		<path id="Vector" d="M56.21 43.31L47.13 51.98L8.8 88.56C7.79 89.52 6.5 90.01 5.21 90.01C3.8 90.01 2.38 89.43 1.36 88.29C-0.67 86.06 -0.4 82.57 1.93 80.66L47.13 43.82L52.11 39.77L56.21 43.31Z" fill="url(#paint_linear_23_158_0)" fill-opacity="1.000000" fill-rule="nonzero"/>
		<path id="Vector" d="M46.74 52.42L37.8 60.94L36.98 52.18L41.87 48.2L46.74 52.42Z" fill="#3A81D6" fill-opacity="0.800000" fill-rule="nonzero"/>
		<path id="Vector" d="M91.97 29.9C91.97 46.42 78.68 59.82 62.29 59.82C51.96 59.82 42.86 54.51 37.55 46.43C34.43 41.7 32.61 36.02 32.61 29.9C32.61 13.38 45.9 0 62.29 0C69.69 0 76.45 2.72 81.64 7.23C87.97 12.72 91.97 20.84 91.97 29.9Z" fill="url(#paint_linear_23_160_0)" fill-opacity="1.000000" fill-rule="nonzero"/>
		<path id="Vector" d="M85.42 29.9C85.42 42.77 75.06 53.2 62.29 53.2C49.52 53.2 39.16 42.77 39.16 29.9C39.16 17.03 49.52 6.6 62.29 6.6C75.06 6.6 85.42 17.03 85.42 29.9Z" fill="#FFFFFF" fill-opacity="1.000000" fill-rule="evenodd"/>
		<g opacity="0.060000">
			<path id="Vector" d="M91.97 29.9C91.97 46.42 78.68 59.82 62.29 59.82C51.96 59.82 42.86 54.51 37.55 46.43C71.02 43.69 79.85 15.11 81.66 7.23C87.97 12.72 91.97 20.84 91.97 29.9Z" fill="#1A6FB5" fill-opacity="0.500000" fill-rule="nonzero"/>
		</g>
		<path id="Vector" d="M62.29 29.95C64.97 29.95 67.15 27.76 67.15 25.06C67.15 22.35 64.97 20.16 62.29 20.16C59.61 20.16 57.43 22.35 57.43 25.06C57.43 27.76 59.6 29.95 62.29 29.95ZM62.29 32.4C59.05 32.4 52.57 34.04 52.57 37.3L52.57 38.53C52.57 39.2 53.12 39.76 53.79 39.76L70.81 39.76C71.48 39.76 72.03 39.2 72.03 38.53L72.03 37.3C72.01 34.05 65.53 32.4 62.29 32.4Z" fill="url(#paint_linear_23_163_0)" fill-opacity="1.000000" fill-rule="nonzero"/>
	</g>
</svg>
