<svg width="67.000000" height="95.000000" viewBox="0 0 67 95" fill="none" xmlns="http://www.w3.org/2000/svg" xmlns:xlink="http://www.w3.org/1999/xlink">
	<desc>
			Created with Pixso.
	</desc>
	<defs>
		<clipPath id="clip33_43">
			<rect id="Frame" width="67.075409" height="95.000000" transform="translate(-0.364868 0.000000)" fill="white" fill-opacity="0"/>
		</clipPath>
		<linearGradient x1="-9.653553" y1="34.748001" x2="75.999207" y2="62.578262" id="paint_linear_33_45_0" gradientUnits="userSpaceOnUse">
			<stop stop-color="#6CBCFC"/>
			<stop offset="0.171300" stop-color="#5EABFC"/>
			<stop offset="0.408400" stop-color="#509AFC"/>
			<stop offset="0.669800" stop-color="#4890FC"/>
			<stop offset="1.000000" stop-color="#458DFC"/>
		</linearGradient>
		<linearGradient x1="-5.589851" y1="-21.374935" x2="55.386589" y2="7.989712" id="paint_linear_33_48_0" gradientUnits="userSpaceOnUse">
			<stop stop-color="#CFE9FF"/>
			<stop offset="1.000000" stop-color="#A1D6FB"/>
		</linearGradient>
		<linearGradient x1="13.654274" y1="2.579521" x2="52.590057" y2="2.579521" id="paint_linear_33_49_0" gradientUnits="userSpaceOnUse">
			<stop stop-color="#B0F4FF"/>
			<stop offset="1.000000" stop-color="#69DCFC"/>
		</linearGradient>
		<linearGradient x1="13.770055" y1="29.207520" x2="23.550686" y2="41.833420" id="paint_linear_33_52_0" gradientUnits="userSpaceOnUse">
			<stop stop-color="#6CBCFC"/>
			<stop offset="1.000000" stop-color="#458DFC"/>
		</linearGradient>
		<linearGradient x1="12.709268" y1="30.029335" x2="22.489952" y2="42.655273" id="paint_linear_33_53_0" gradientUnits="userSpaceOnUse">
			<stop stop-color="#B0F4FF"/>
			<stop offset="0.099438" stop-color="#A1EFFE"/>
			<stop offset="0.299400" stop-color="#88E7FD"/>
			<stop offset="0.509500" stop-color="#77E1FD"/>
			<stop offset="0.734400" stop-color="#6CDDFC"/>
			<stop offset="1.000000" stop-color="#69DCFC"/>
		</linearGradient>
		<linearGradient x1="28.580688" y1="26.550982" x2="50.239967" y2="26.542524" id="paint_linear_33_54_0" gradientUnits="userSpaceOnUse">
			<stop stop-color="#6CBCFC"/>
			<stop offset="1.000000" stop-color="#458DFC"/>
		</linearGradient>
		<linearGradient x1="28.584660" y1="30.403694" x2="42.781410" y2="30.403694" id="paint_linear_33_55_0" gradientUnits="userSpaceOnUse">
			<stop stop-color="#6CBCFC"/>
			<stop offset="1.000000" stop-color="#458DFC"/>
		</linearGradient>
		<linearGradient x1="28.589371" y1="35.009762" x2="57.237419" y2="35.009762" id="paint_linear_33_56_0" gradientUnits="userSpaceOnUse">
			<stop stop-color="#6CBCFC"/>
			<stop offset="1.000000" stop-color="#458DFC"/>
		</linearGradient>
		<linearGradient x1="9.749966" y1="47.927151" x2="56.675961" y2="47.927151" id="paint_linear_33_57_0" gradientUnits="userSpaceOnUse">
			<stop stop-color="#6CBCFC"/>
			<stop offset="1.000000" stop-color="#458DFC"/>
		</linearGradient>
		<linearGradient x1="28.593985" y1="39.519115" x2="57.242020" y2="39.519115" id="paint_linear_33_58_0" gradientUnits="userSpaceOnUse">
			<stop stop-color="#6CBCFC"/>
			<stop offset="1.000000" stop-color="#458DFC"/>
		</linearGradient>
	</defs>
	<rect id="Frame" width="67.075409" height="95.000000" transform="translate(-0.364868 0.000000)" fill="#FFFFFF" fill-opacity="0"/>
	<g clip-path="url(#clip33_43)">
		<path id="Vector" d="M66.71 90.44C66.71 92.92 64.7 94.94 62.22 94.94L4.22 95C2.24 95 0.57 93.73 -0.04 91.97C-0.2 91.51 -0.28 91.03 -0.28 90.53L-0.37 6.88C-0.37 4.4 1.64 2.38 4.12 2.38L57.38 2.32L62.12 2.32C64.6 2.32 66.61 4.32 66.61 6.8L66.71 90.44Z" fill="url(#paint_linear_33_45_0)" fill-opacity="1.000000" fill-rule="nonzero"/>
		<path id="Vector" d="M60.69 89.96L5.73 90.02C4.4 90.02 3.32 88.94 3.32 87.61L3.24 9.76C3.24 8.43 4.31 7.35 5.65 7.35L60.6 7.29C61.94 7.29 63.02 8.37 63.02 9.7L63.1 87.55C63.11 88.88 62.03 89.96 60.69 89.96Z" fill="#FFFFFF" fill-opacity="1.000000" fill-rule="nonzero"/>
		<path id="Vector" d="M52.98 13.71L12.89 13.76C11.56 13.76 10.48 12.68 10.48 11.35L10.47 4.67C10.47 3.34 11.54 2.26 12.87 2.26L52.97 2.22C54.29 2.22 55.38 3.29 55.38 4.62L55.39 11.3C55.38 12.63 54.3 13.71 52.98 13.71ZM12.87 3.49C12.22 3.49 11.69 4.02 11.69 4.66L11.7 11.35C11.7 11.99 12.23 12.52 12.88 12.52L52.98 12.48C53.62 12.48 54.15 11.95 54.15 11.3L54.14 4.62C54.14 3.97 53.61 3.44 52.97 3.44L12.87 3.49Z" fill="url(#paint_linear_33_48_0)" fill-opacity="1.000000" fill-rule="nonzero"/>
		<path id="Vector" d="M51.84 5.11L14.41 5.15C13.99 5.15 13.66 4.82 13.66 4.41L13.66 0.78C13.66 0.37 13.99 0.04 14.41 0.04L51.83 0C52.25 0 52.58 0.33 52.58 0.74L52.58 4.36C52.59 4.78 52.25 5.11 51.84 5.11Z" fill="url(#paint_linear_33_49_0)" fill-opacity="1.000000" fill-rule="nonzero"/>
		<path id="Vector" d="M14.44 5.15L51.81 5.11C52.24 5.11 52.59 4.76 52.59 4.33L52.59 2.56L13.65 2.6L13.65 4.37C13.65 4.8 14.01 5.15 14.44 5.15Z" fill="#58D6F4" fill-opacity="1.000000" fill-rule="nonzero"/>
		<path id="Vector" d="M27.57 81.21L24.34 61.64L21.72 70.15L14.22 70.16C13.77 70.16 13.4 69.8 13.4 69.34C13.4 68.89 13.77 68.52 14.22 68.52L20.52 68.51L24.84 54.49L28.07 74.11L32.26 60.64L34.49 67.02L39.52 54.84L44.4 74.16L46.24 68.02L51.63 68.01C52.09 68.01 52.45 68.37 52.45 68.83C52.45 69.28 52.09 69.65 51.63 69.65L47.46 69.66L44.27 80.31L39.15 60.05L34.36 71.63L32.35 65.87L27.57 81.21Z" fill="#58D6F4" fill-opacity="1.000000" fill-rule="nonzero"/>
		<path id="Vector" d="M22.02 43.48L11.48 43.49C9.78 43.49 8.39 42.11 8.39 40.41L8.37 25.67C8.37 23.97 9.75 22.58 11.45 22.58L21.99 22.57C23.69 22.57 25.08 23.96 25.08 25.66L25.1 40.39C25.1 42.09 23.72 43.47 22.02 43.48ZM11.45 23.48C10.23 23.48 9.26 24.46 9.26 25.67L9.27 40.41C9.27 41.62 10.26 42.59 11.47 42.59L22.01 42.59C23.22 42.59 24.2 41.6 24.2 40.39L24.18 25.66C24.18 24.45 23.19 23.47 21.98 23.47L11.45 23.48Z" fill="url(#paint_linear_33_52_0)" fill-opacity="1.000000" fill-rule="nonzero"/>
		<path id="Vector" d="M16.73 40.65C21.72 40.65 23.27 37.77 23.27 37.77C23.04 37.49 22.76 37.24 22.38 36.99C21.07 36.14 20.02 35.77 19.58 35.41C19.13 35.05 18.88 34.53 18.88 34.53L18.61 34.69C18.61 34.69 18.44 34.12 18.53 33.25C18.53 33.25 18.92 33.15 19.21 31.83C19.68 31.92 20.23 30.75 19.97 30.32C19.8 30.03 19.6 30.06 19.46 30.13C19.6 29.54 20.24 26.28 16.73 26.28C13.21 26.28 13.85 29.54 14 30.13C13.86 30.06 13.66 30.03 13.49 30.32C13.24 30.75 13.79 31.92 14.26 31.83C14.55 33.15 14.94 33.24 14.94 33.24C15.04 34.1 14.87 34.69 14.87 34.69L14.6 34.52C14.6 34.52 14.35 35.03 13.9 35.4C13.45 35.76 12.41 36.14 11.1 36.99C10.72 37.24 10.43 37.49 10.21 37.77C10.2 37.79 11.76 40.66 16.73 40.65Z" fill="url(#paint_linear_33_53_0)" fill-opacity="1.000000" fill-rule="nonzero"/>
		<path id="Vector" d="M49.55 27.27L29.26 27.3C28.88 27.3 28.57 26.99 28.57 26.61L28.57 26.49C28.57 26.11 28.88 25.81 29.26 25.81L49.55 25.78C49.93 25.78 50.24 26.09 50.24 26.47L50.24 26.58C50.24 26.97 49.92 27.27 49.55 27.27Z" fill="url(#paint_linear_33_54_0)" fill-opacity="1.000000" fill-rule="nonzero"/>
		<path id="Vector" d="M42.09 31.14L29.26 31.15C28.88 31.15 28.57 30.85 28.57 30.47L28.57 30.35C28.57 29.97 28.88 29.66 29.26 29.66L42.09 29.64C42.47 29.64 42.78 29.95 42.78 30.33L42.78 30.45C42.78 30.83 42.47 31.14 42.09 31.14Z" fill="url(#paint_linear_33_55_0)" fill-opacity="1.000000" fill-rule="nonzero"/>
		<g opacity="0.600000">
			<path id="Vector" d="M56.55 35.73L29.27 35.76C28.89 35.76 28.58 35.46 28.58 35.07L28.58 34.96C28.58 34.58 28.89 34.27 29.27 34.27L56.55 34.24C56.93 34.24 57.24 34.54 57.24 34.93L57.24 35.04C57.23 35.42 56.92 35.73 56.55 35.73Z" fill="url(#paint_linear_33_56_0)" fill-opacity="1.000000" fill-rule="nonzero"/>
		</g>
		<g opacity="0.600000">
			<path id="Vector" d="M55.96 48.64L10.46 48.69C10.07 48.69 9.75 48.37 9.75 47.98L9.75 47.91C9.75 47.52 10.06 47.2 10.46 47.2L55.96 47.15C56.35 47.15 56.67 47.46 56.67 47.86L56.67 47.93C56.67 48.32 56.35 48.64 55.96 48.64Z" fill="url(#paint_linear_33_57_0)" fill-opacity="1.000000" fill-rule="nonzero"/>
		</g>
		<g opacity="0.600000">
			<path id="Vector" d="M56.55 40.24L29.27 40.27C28.89 40.27 28.58 39.97 28.58 39.59L28.58 39.47C28.58 39.09 28.89 38.78 29.27 38.78L56.55 38.75C56.93 38.75 57.24 39.05 57.24 39.44L57.24 39.55C57.24 39.93 56.93 40.24 56.55 40.24Z" fill="url(#paint_linear_33_58_0)" fill-opacity="1.000000" fill-rule="nonzero"/>
		</g>
	</g>
</svg>
